<svg width="300" height="341" viewBox="0 0 300 341" fill="none" xmlns="http://www.w3.org/2000/svg">
<path d="M299.059 52.4023V59.9707C299.059 73.3171 295.071 79.9902 287.096 79.9902C284.817 79.9902 279.527 74.4564 271.227 63.3887C263.089 52.1582 254.788 44.1829 246.324 39.4629C238.023 34.7428 227.2 32.3828 213.854 32.3828C200.67 32.3828 192.206 33.8477 188.463 36.7773C184.882 39.707 182.278 45.6478 180.65 54.5996C179.186 63.5514 178.453 102.37 178.453 171.055C178.453 239.74 179.592 279.209 181.871 289.463C184.312 299.717 190.579 308.424 200.67 315.586C210.761 322.747 215.807 328.688 215.807 333.408C215.807 337.965 208.157 340.244 192.857 340.244L184.557 340L168.443 339.756C162.91 339.593 157.538 339.512 152.33 339.512L128.648 339.268C107.978 339.268 94.7943 338.779 89.0977 337.803C83.5638 336.663 80.7969 333.327 80.7969 327.793C80.7969 325.026 86.0052 320.306 96.4219 313.633C107.001 306.96 113.593 298.171 116.197 287.266C118.964 276.198 120.348 235.02 120.348 163.73C120.348 92.4414 119.371 53.2975 117.418 46.2988C114.814 37.1842 105.699 32.627 90.0742 32.627C74.612 32.627 62.6491 35.1497 54.1855 40.1953C45.722 45.0781 37.584 53.3789 29.7715 65.0977C21.959 76.8164 14.7975 82.6758 8.28711 82.6758C3.4043 82.6758 0.962891 78.1999 0.962891 69.248V61.9238C0.962891 26.9303 3.97396 7.31771 9.99609 3.08594C12.2747 1.45833 60.3704 0.644531 154.283 0.644531L270.494 0.15625C282.701 0.15625 290.514 3.33008 293.932 9.67773C297.35 16.0254 299.059 30.2669 299.059 52.4023Z" fill="#074F2B"/>
</svg>
